<svg xmlns="http://www.w3.org/2000/svg" version="1.1" xmlns:xlink="http://www.w3.org/1999/xlink" xmlns:svgjs="http://svgjs.dev/svgjs" width="2000" height="843" viewBox="0 0 2000 843"><g transform="matrix(1,0,0,1,-1.2120746336029242,1.1256483531529966)"><svg viewBox="0 0 396 167" data-background-color="#ffffff" preserveAspectRatio="xMidYMid meet" height="843" width="2000" xmlns="http://www.w3.org/2000/svg" xmlns:xlink="http://www.w3.org/1999/xlink"><defs></defs><g id="tight-bounds" transform="matrix(1,0,0,1,0.23999077745338582,-0.22299320875035278)"><svg viewBox="0 0 395.52 167.4459864175007" height="167.4459864175007" width="395.52"><g><svg viewBox="0 0 474.77710096783215 200.99999999999997" height="167.4459864175007" width="395.52"><g><rect width="16.52267859020979" height="200.99999999999997" x="163.2530853146853" y="0" fill="#ff0000" opacity="1" stroke-width="0" stroke="transparent" fill-opacity="1" class="rect-o-0" data-fill-palette-color="primary" rx="1%" id="o-0" data-palette-color="#ff0000"></rect></g><g transform="matrix(1,0,0,1,223.0288492195804,0.4999999999999858)"><svg viewBox="0 0 251.74825174825173 200" height="200" width="251.74825174825173"><g><svg viewBox="0 0 251.74825174825173 200" height="200" width="251.74825174825173"><g><svg viewBox="0 0 251.74825174825173 200" height="200" width="251.74825174825173"><g transform="matrix(1,0,0,1,0,0)"><svg width="251.74825174825173" viewBox="2.3999998569488525 -32.75 44.999996185302734 32.75" height="200" data-palette-color="#ff0000"><svg></svg><g class="undefined-text-0" data-fill-palette-color="primary" id="text-0"><path d="M5.1 0h-2.7v-32.75h2.65l7.05 18.35h0.75l7.05-18.35h2.65v32.75h-2.7v-25.4h-0.2l-5.25 13.55h-3.85l-5.25-13.6h-0.2zM38.4-13.45v0c-1.8 0.1-2.967 0.15-3.5 0.15v0h-4.1v13.3h-2.75v-32.75h7.35c4.067 0 7.05 0.7 8.95 2.1 1.9 1.4 2.85 3.867 2.85 7.4v0c0 2.367-0.473 4.267-1.42 5.7-0.953 1.433-2.48 2.6-4.58 3.5v0c2.267 4.3 4.333 8.983 6.2 14.05v0h-3c-1.833-4.867-3.833-9.35-6-13.45zM35.3-30.25v0h-4.5v14.45h4c3.067 0 5.417-0.56 7.05-1.68 1.633-1.113 2.45-3.037 2.45-5.77 0-2.733-0.723-4.583-2.17-5.55-1.453-0.967-3.73-1.45-6.83-1.45z" data-fill-palette-color="primary" fill="#ff0000" opacity="1"></path></g></svg></g></svg></g></svg></g></svg></g><g transform="matrix(1,0,0,1,0,0.4999999999999858)"><svg viewBox="0 0 120 200" height="200" width="120"><g><svg xmlns="http://www.w3.org/2000/svg" xmlns:xlink="http://www.w3.org/1999/xlink" version="1.1" x="0" y="0" viewBox="14 2 36 60" style="enable-background:new 0 0 64 64;" xml:space="preserve" height="200" width="120" class="icon-icon-0" data-fill-palette-color="accent" id="icon-0"><path d="M45 36h-3v-4H14v25c0 2.8 2.2 5 5 5h18c2.8 0 5-2.2 5-5v-3h3c2.8 0 5-2.2 5-5v-8C50 38.2 47.8 36 45 36zM23.9 54.5l-1.7 1L17.8 48l4.3-7.5 1.7 1L20.2 48 23.9 54.5zM27 55.3L25 54.7l4-14 1.9 0.5L27 55.3zM33.9 55.5l-1.7-1 3.7-6.5-3.7-6.5 1.7-1 4.3 7.5L33.9 55.5zM48 49c0 1.7-1.3 3-3 3h-3V38h3c1.7 0 3 1.3 3 3V49z" fill="#ff0000" data-fill-palette-color="accent"></path><g fill="#ff0000" data-fill-palette-color="accent"><path d="M38 30h-2v-2c0-1.1-0.9-2-2-2H20c-2.2 0-4-1.8-4-4s1.8-4 4-4h14c1.1 0 2-0.9 2-2s-0.9-2-2-2H20c-2.2 0-4-1.8-4-4s1.8-4 4-4h14c1.1 0 2-0.9 2-2V2h2v2c0 2.2-1.8 4-4 4H20c-1.1 0-2 0.9-2 2s0.9 2 2 2h14c2.2 0 4 1.8 4 4s-1.8 4-4 4H20c-1.1 0-2 0.9-2 2s0.9 2 2 2h14c2.2 0 4 1.8 4 4V30z" fill="#ff0000" data-fill-palette-color="accent"></path></g></svg></g></svg></g></svg></g></svg><rect width="395.52" height="167.4459864175007" fill="none" stroke="none" visibility="hidden"></rect></g></svg></g></svg>